<svg width="23" height="24" viewBox="0 0 23 24" fill="none" xmlns="http://www.w3.org/2000/svg">
<path d="M11.4089 15.2688C9.7478 15.277 8.11873 14.812 6.71223 13.9283C6.6307 13.8762 6.5603 13.8084 6.50511 13.729C6.44992 13.6495 6.41104 13.5598 6.3907 13.4652C6.37037 13.3706 6.36899 13.273 6.38664 13.1778C6.4043 13.0827 6.44064 12.992 6.49356 12.911C6.544 12.829 6.6103 12.7579 6.68859 12.7019C6.76688 12.6459 6.85556 12.6061 6.94945 12.5849C7.04333 12.5636 7.14051 12.5613 7.23528 12.5781C7.33006 12.595 7.42052 12.6305 7.50135 12.6828C8.6782 13.401 10.0302 13.7809 11.4089 13.7809C12.7876 13.7809 14.1396 13.401 15.3164 12.6828C15.3973 12.6305 15.4877 12.595 15.5825 12.5781C15.6773 12.5613 15.7744 12.5636 15.8683 12.5849C15.9622 12.6061 16.0509 12.6459 16.1292 12.7019C16.2075 12.7579 16.2738 12.829 16.3242 12.911C16.3771 12.992 16.4135 13.0827 16.4311 13.1778C16.4488 13.273 16.4474 13.3706 16.4271 13.4652C16.4067 13.5598 16.3678 13.6495 16.3127 13.729C16.2575 13.8084 16.1871 13.8762 16.1055 13.9283C14.699 14.812 13.07 15.277 11.4089 15.2688ZM13.3104 17.1133L18.0641 19.0147L19.9655 19.9655V20.3268C19.9667 20.4896 19.9259 20.6501 19.8473 20.7927C19.7686 20.9353 19.6546 21.0553 19.5162 21.1412C19.3778 21.2271 19.2197 21.276 19.057 21.2832C18.8943 21.2904 18.7324 21.2557 18.587 21.1824L12.3596 19.0147H5.59987C4.87115 19.0147 4.17228 18.7253 3.657 18.21C3.14172 17.6947 2.85223 16.9958 2.85223 16.2671V5.59981C2.85223 4.87109 3.14172 4.17222 3.657 3.65694C4.17228 3.14165 4.87115 2.85217 5.59987 2.85217H17.2179C18.7391 2.85217 19.9655 4.07863 19.9655 4.64907V19.9655L18.0641 19.0147V5.91355C18.0641 5.76123 18.0341 5.6104 17.9758 5.46968C17.9175 5.32895 17.832 5.20108 17.7243 5.09338C17.6166 4.98567 17.4888 4.90023 17.348 4.84194C17.2073 4.78365 17.0565 4.75365 16.9042 4.75365H5.91361C5.76129 4.75365 5.61046 4.78365 5.46974 4.84194C5.32901 4.90023 5.20115 4.98567 5.09344 5.09338C4.98573 5.20108 4.90029 5.32895 4.842 5.46968C4.78371 5.6104 4.75371 5.76123 4.75371 5.91355V15.9534C4.75371 16.5942 5.27282 17.1133 5.91361 17.1133H13.3104Z" fill="url(#paint0_linear)"/>
<defs>
<linearGradient id="paint0_linear" x1="3.51662" y1="2.48336" x2="36.3909" y2="80.8056" gradientUnits="userSpaceOnUse">
<stop stop-color="white"/>
<stop offset="1" stop-color="#FFE455"/>
</linearGradient>
</defs>
</svg>
