<svg width="72" height="94" viewBox="0 0 72 94" fill="none" xmlns="http://www.w3.org/2000/svg">
<g clip-path="url(#clip0)">
<g filter="url(#filter0_d)">
<path fill-rule="evenodd" clip-rule="evenodd" d="M3.85281 29.5771H68.1466C70.1153 29.5771 71.7184 27.9761 71.7184 26.0099C71.7184 24.0437 70.1153 22.4427 68.1466 22.4427H3.85281C1.88406 22.4427 0.280935 24.0437 0.280935 26.0099C0.280935 27.9761 1.88406 29.5771 3.85281 29.5771ZM50.2871 79.5182H3.85276C1.88401 79.5182 0.280884 81.1192 0.280884 83.0854C0.280884 85.0516 1.88401 86.6526 3.85276 86.6526H50.2871C52.2559 86.6526 53.859 85.0516 53.859 83.0854C53.859 81.1192 52.2559 79.5182 50.2871 79.5182ZM25.284 58.1148H3.85276C1.88401 58.1148 0.280884 56.5138 0.280884 54.5476C0.280884 52.5814 1.88401 50.9804 3.85276 50.9804H25.284C27.2528 50.9804 28.8559 52.5814 28.8559 54.5476C28.8559 56.5138 27.2528 58.1148 25.284 58.1148ZM68.1469 50.9804H50.2875C48.3187 50.9804 46.7156 52.5814 46.7156 54.5476C46.7156 56.5138 48.3187 58.1148 50.2875 58.1148H68.1469C70.1156 58.1148 71.7187 56.5138 71.7187 54.5476C71.7187 52.5814 70.1156 50.9804 68.1469 50.9804ZM10.9965 43.8459H3.85276C1.88401 43.8459 0.280884 42.2449 0.280884 40.2787C0.280884 38.3125 1.88401 36.7115 3.85276 36.7115H10.9965C12.9653 36.7115 14.5684 38.3125 14.5684 40.2787C14.5684 42.2449 12.9653 43.8459 10.9965 43.8459ZM68.1468 36.7115H43.1437C41.175 36.7115 39.5718 38.3125 39.5718 40.2787C39.5718 42.2449 41.175 43.8459 43.1437 43.8459H68.1468C70.1156 43.8459 71.7187 42.2449 71.7187 40.2787C71.7187 38.3125 70.1156 36.7115 68.1468 36.7115ZM25.2843 36.7115H28.8562C30.825 36.7115 32.4281 38.3125 32.4281 40.2787C32.4281 42.2449 30.825 43.8459 28.8562 43.8459H25.2843C23.3156 43.8459 21.7125 42.2449 21.7125 40.2787C21.7125 38.3125 23.3156 36.7115 25.2843 36.7115ZM39.5719 50.9804H36C34.0313 50.9804 32.4281 52.5814 32.4281 54.5476C32.4281 56.5138 34.0313 58.1148 36 58.1148H39.5719C41.5406 58.1148 43.1438 56.5138 43.1438 54.5476C43.1438 52.5814 41.5406 50.9804 39.5719 50.9804ZM10.9965 72.3837H3.85276C1.88401 72.3837 0.280884 70.7827 0.280884 68.8165C0.280884 66.8503 1.88401 65.2493 3.85276 65.2493H10.9965C12.9653 65.2493 14.5684 66.8503 14.5684 68.8165C14.5684 70.7827 12.9653 72.3837 10.9965 72.3837ZM28.8562 65.2493H25.2843C23.3156 65.2493 21.7125 66.8503 21.7125 68.8165C21.7125 70.7827 23.3156 72.3837 25.2843 72.3837H28.8562C30.825 72.3837 32.4281 70.7827 32.4281 68.8165C32.4281 66.8503 30.825 65.2493 28.8562 65.2493ZM43.1437 72.3837C41.175 72.3837 39.5718 70.7827 39.5718 68.8165C39.5718 66.8503 41.175 65.2493 43.1437 65.2493H46.7156C48.6843 65.2493 50.2875 66.8503 50.2875 68.8165C50.2875 70.7827 48.6843 72.3837 46.7156 72.3837H43.1437ZM68.1469 65.2493H61.0032C59.0344 65.2493 57.4313 66.8503 57.4313 68.8165C57.4313 70.7827 59.0344 72.3837 61.0032 72.3837H68.1469C70.1157 72.3837 71.7188 70.7827 71.7188 68.8165C71.7188 66.8503 70.1157 65.2493 68.1469 65.2493ZM61.0032 79.5182H68.1469C70.1157 79.5182 71.7188 81.1192 71.7188 83.0854C71.7188 85.0516 70.1157 86.6526 68.1469 86.6526H61.0032C59.0344 86.6526 57.4313 85.0516 57.4313 83.0854C57.4313 81.1192 59.0344 79.5182 61.0032 79.5182Z" fill="url(#paint0_linear)"/>
</g>
</g>
<path d="M36 19.4504C37.9459 10.543 45.7297 -1.82833 54.973 7.07901C63.8447 15.6284 49.1351 23.7391 40.8649 26.3783H67.1351" stroke="#F06D9A" stroke-width="6.32432" stroke-linecap="round" stroke-linejoin="round"/>
<path d="M36 19.4504C33.9932 10.543 25.9662 -1.82834 16.4341 7.07901C7.28514 15.6283 22.4544 23.7391 30.9831 26.3783H3.89189" stroke="#F06D9A" stroke-width="6.32432" stroke-linecap="round" stroke-linejoin="round"/>
<defs>
<filter id="filter0_d" x="0.280884" y="22.4427" width="71.4379" height="64.2099" filterUnits="userSpaceOnUse" color-interpolation-filters="sRGB">
<feFlood flood-opacity="0" result="BackgroundImageFix"/>
<feColorMatrix in="SourceAlpha" type="matrix" values="0 0 0 0 0 0 0 0 0 0 0 0 0 0 0 0 0 0 127 0" result="hardAlpha"/>
<feOffset/>
<feComposite in2="hardAlpha" operator="out"/>
<feColorMatrix type="matrix" values="0 0 0 0 1 0 0 0 0 1 0 0 0 0 1 0 0 0 1 0"/>
<feBlend mode="normal" in2="BackgroundImageFix" result="effect1_dropShadow"/>
<feBlend mode="normal" in="SourceGraphic" in2="effect1_dropShadow" result="shape"/>
</filter>
<linearGradient id="paint0_linear" x1="-78.7508" y1="-75.5014" x2="-51.0964" y2="155.091" gradientUnits="userSpaceOnUse">
<stop stop-color="#E200D9"/>
<stop offset="1" stop-color="#FFE455"/>
</linearGradient>
<clipPath id="clip0">
<rect width="72" height="59.3514" fill="white" transform="translate(0 34.1621)"/>
</clipPath>
</defs>
</svg>
