<svg width="20" height="20" viewBox="0 0 20 20" fill="none" xmlns="http://www.w3.org/2000/svg">
<g clip-path="url(#clip0)">
<path d="M12.9219 18.5752C12.4373 18.5752 12.1143 18.2521 12.1143 17.7676V14.6179C12.195 13.9718 11.9527 13.4872 11.5489 13.0834C11.3066 12.8411 11.2259 12.518 11.3874 12.2758C11.4682 11.9527 11.7912 11.7912 12.0335 11.7104C14.3756 11.4681 16.5561 10.6605 16.5561 6.86473C16.5561 5.97635 16.2331 5.08797 15.587 4.36112C15.3447 4.11883 15.3447 3.79579 15.4255 3.5535C15.6678 2.90741 15.6678 2.26131 15.5062 1.61522C15.1024 1.69598 14.4563 1.93827 13.4064 2.66512C13.2449 2.82665 13.0026 2.82665 12.7603 2.74588C11.0643 2.26131 9.20683 2.26131 7.51083 2.74588C7.26855 2.82665 7.02626 2.82665 6.78398 2.66512C5.81484 1.93827 5.08798 1.69598 4.68418 1.61522C4.52265 2.26131 4.52265 2.90741 4.76494 3.5535C4.8457 3.87655 4.8457 4.19959 4.60341 4.36112C3.95732 5.08797 3.63427 5.97635 3.63427 6.86473C3.63427 10.6605 5.81484 11.4681 8.15693 11.7104C8.47997 11.7104 8.72226 11.9527 8.80302 12.2758C8.88378 12.5988 8.80302 12.9219 8.6415 13.0834C8.23769 13.4872 8.07617 13.9718 8.07617 14.5371V15.2639V15.3447V17.6868C8.07617 18.1714 7.75312 18.4944 7.26855 18.4944C6.78398 18.4944 6.46093 18.1714 6.46093 17.6868V16.3138C4.03808 16.7177 2.98818 15.3447 2.26132 14.4563C1.93828 14.0525 1.69599 13.7295 1.37295 13.6487C0.969138 13.568 0.646091 13.0834 0.807614 12.6796C0.888376 12.2758 1.37295 11.9527 1.77675 12.1142C2.58437 12.3565 3.06894 12.9219 3.55351 13.4872C4.19961 14.3756 4.76494 15.0217 6.46093 14.6986V14.6179C6.46093 14.1333 6.54169 13.568 6.70322 13.1641C4.44189 12.6796 2.01904 11.2259 2.01904 6.94549C2.01904 5.73407 2.42285 4.6034 3.1497 3.71502C2.82666 2.58436 2.90742 1.53446 3.39199 0.484557C3.47275 0.242272 3.63427 0.0807483 3.87656 -1.33924e-05C4.19961 -0.0807751 5.24951 -0.242298 7.43007 1.13065C9.20683 0.726842 11.0643 0.726842 12.7603 1.13065C14.8601 -0.242298 15.9908 -0.0807751 16.3139 -1.33924e-05C16.5561 0.0807483 16.7177 0.242272 16.7984 0.484557C17.2022 1.53446 17.283 2.58436 17.0407 3.63426C17.7676 4.52264 18.1714 5.6533 18.1714 6.86473C18.1714 11.4681 15.4255 12.6796 13.4872 13.1641C13.6487 13.6487 13.7295 14.214 13.7295 14.6986V17.7676C13.7295 18.2521 13.4064 18.5752 12.9219 18.5752Z" fill="url(#paint0_linear)"/>
</g>
<defs>
<linearGradient id="paint0_linear" x1="1.44089" y1="-0.424101" x2="34.5117" y2="78.8778" gradientUnits="userSpaceOnUse">
<stop stop-color="white"/>
<stop offset="1" stop-color="#FFE455"/>
</linearGradient>
<clipPath id="clip0">
<rect width="19.3828" height="19.3828" fill="white"/>
</clipPath>
</defs>
</svg>
