<svg width="22" height="22" viewBox="0 0 22 22" fill="none" xmlns="http://www.w3.org/2000/svg">
<g clip-path="url(#clip0)">
<path d="M7.47001 19.71C5.13001 19.71 2.70001 19.08 0.540013 17.82C0.180013 17.64 1.26958e-05 17.19 0.0900127 16.83C0.180013 16.47 0.540013 16.2 0.900013 16.2C2.43001 16.29 3.96001 15.93 5.31001 15.3C1.98001 13.23 1.08001 10.35 0.990013 8.1C0.900013 5.49 1.80001 3.33 1.89001 3.24C1.98001 2.97 2.25001 2.7 2.61001 2.7C2.97001 2.7 3.24001 2.79 3.42001 3.06C4.95001 5.22001 7.29001 6.57 9.90001 6.75C9.90001 5.31 10.53 3.96 11.61 2.97C13.5 1.35 16.29 1.35 18.18 2.97C18.9 2.7 19.62 2.34 20.25 1.89C20.52 1.71 20.97 1.71 21.24 1.89C21.51 2.07 21.69 2.52 21.6 2.88001C21.33 4.14 20.7 5.31 19.8 6.3C19.8 6.48 19.8 6.57 19.8 6.75C19.8 11.7 17.64 15.84 13.77 18C11.88 19.17 9.72001 19.71 7.47001 19.71ZM4.50001 17.55C7.47001 18.27 10.44 17.91 12.96 16.47C16.2 14.58 18.09 10.98 18.09 6.75C18.09 6.57 18.09 6.39001 18 6.21C17.91 5.94 18 5.58 18.27 5.4C18.45 5.22001 18.63 4.95001 18.81 4.77001C18.63 4.86001 18.36 4.95001 18.18 4.95001C17.82 5.04 17.46 4.95 17.28 4.68C16.11 3.42 14.13 3.24001 12.87 4.41001C12.06 4.95001 11.7 5.85001 11.7 6.75V7.65C11.7 8.1 11.34 8.55 10.8 8.55C7.83001 8.64001 5.04001 7.47001 3.06001 5.4C2.52001 7.74001 2.34001 12.15 7.56001 14.4C7.83001 14.58 8.10001 14.85 8.10001 15.21C8.10001 15.57 8.01001 15.84 7.74001 16.02C6.66001 16.74 5.58001 17.28 4.50001 17.55Z" fill="url(#paint0_linear)"/>
</g>
<defs>
<linearGradient id="paint0_linear" x1="0.90395" y1="1.39573" x2="27.2557" y2="82.5789" gradientUnits="userSpaceOnUse">
<stop stop-color="white"/>
<stop offset="1" stop-color="#FFE455"/>
</linearGradient>
<clipPath id="clip0">
<rect width="21.6" height="21.6" fill="white"/>
</clipPath>
</defs>
</svg>
