<svg width="87" height="79" viewBox="0 0 87 79" fill="none" xmlns="http://www.w3.org/2000/svg">
<path d="M67.9011 47.3533C69.7407 47.3533 71.2321 45.8619 71.2321 44.0223C71.2321 42.1826 69.7407 40.6913 67.9011 40.6913C66.0614 40.6913 64.5701 42.1826 64.5701 44.0223C64.5701 45.8619 66.0614 47.3533 67.9011 47.3533Z" fill="url(#paint0_linear)"/>
<mask id="mask0" style="mask-type:alpha" maskUnits="userSpaceOnUse" x="41" y="11" width="18" height="8">
<path d="M58.5 18.0004H41.5L54 11.0004L58.5 18.0004Z" fill="#C4C4C4"/>
</mask>
<g mask="url(#mask0)">
<path fill-rule="evenodd" clip-rule="evenodd" d="M52.2443 20.4581L49.2443 14.9581L52.7558 13.0427L55.7558 18.5427L52.2443 20.4581Z" fill="url(#paint1_linear)"/>
<path fill-rule="evenodd" clip-rule="evenodd" d="M46.2443 23.4581L43.2443 17.9581L46.7558 16.0427L49.7558 21.5427L46.2443 23.4581Z" fill="url(#paint2_linear)"/>
</g>
<path fill-rule="evenodd" clip-rule="evenodd" d="M47.9537 2.4357L47.2888 1.10603C46.801 0.130306 45.6212 -0.274483 44.6371 0.196189L25.9041 9.68834H7.17446C3.331 9.68834 0 13.0193 0 16.8628V71.1837C0 75.0272 3.331 78.1019 7.17446 78.1019H71.4884C75.3318 78.1019 78.4066 75.0272 78.4066 71.1837V58.6284C78.4066 57.6035 78.4066 56.5786 77.8941 55.8099H79.4315C83.275 55.8099 86.606 52.4789 86.606 48.6354V39.1549C86.606 35.3114 83.275 32.2366 79.4315 32.2366H77.8941C78.4066 31.2117 78.4066 30.443 78.4066 29.4181V16.8628C78.4066 13.0193 75.3318 9.68834 71.4884 9.68834H61.4954L58.4206 3.28257C57.9081 2.25765 56.627 1.74519 55.6021 2.25765L49.3312 5.19078L49.2913 5.11086L45.6822 6.83695L45.7068 6.8861L39.9167 9.59435L30.6123 14.0443H30.7477L23.9418 17.2345L22.6473 17.8536L22.6198 17.8542L22.5483 17.8877H20.9884L15.5 18.0005L47.9537 2.4357ZM7.17446 14.0443H17.3076L9.5 18.0005L8.5 19.0005L8.82733 18.9315C8.59195 19.2934 8.45561 19.7265 8.45561 20.1938C8.45561 21.2187 9.48054 22.2436 10.7617 22.2436H74.3069V29.4181C74.3069 30.6993 73.282 31.7242 72.257 31.9804L66.3637 32.2366C61.2391 32.2366 55.8583 32.7491 55.8583 39.1549V48.6354C55.8583 52.7351 58.9331 55.8099 62.7765 55.8099H71.4884C73.0257 55.8099 74.3069 57.091 74.3069 58.6284V71.1837C74.3069 72.7211 73.0257 74.0022 71.4884 74.0022H7.17446C5.63707 74.0022 4.35592 72.7211 4.35592 71.1837V16.8628C4.35592 15.3254 5.63707 14.0443 7.17446 14.0443ZM32.5413 17.8877H60.7267L55.3458 7.12603L32.5413 17.8877ZM65.5951 17.8877H74.3069V16.8628C74.3069 15.3254 73.0257 14.0443 71.4884 14.0443H63.5452L65.5951 17.8877ZM79.4315 36.5926H62.7765C61.2391 36.5926 60.2142 37.6175 60.2142 39.1549V48.6354C60.2142 50.1728 61.2391 51.4539 62.7765 51.4539H79.4315C80.9689 51.4539 82.25 50.1728 82.25 48.6354V39.1549C82.25 37.6175 80.9689 36.5926 79.4315 36.5926Z" fill="url(#paint3_linear)"/>
<defs>
<linearGradient id="paint0_linear" x1="57.1999" y1="30.5293" x2="60.3814" y2="54.3736" gradientUnits="userSpaceOnUse">
<stop stop-color="#E200D9"/>
<stop offset="1" stop-color="#FFE455"/>
</linearGradient>
<linearGradient id="paint1_linear" x1="42.0405" y1="1.73147" x2="46.0525" y2="28.1352" gradientUnits="userSpaceOnUse">
<stop stop-color="#E200D9"/>
<stop offset="1" stop-color="#FFE455"/>
</linearGradient>
<linearGradient id="paint2_linear" x1="36.0405" y1="4.73147" x2="40.0525" y2="31.1352" gradientUnits="userSpaceOnUse">
<stop stop-color="#E200D9"/>
<stop offset="1" stop-color="#FFE455"/>
</linearGradient>
<linearGradient id="paint3_linear" x1="-95.8121" y1="-119.134" x2="-62.0661" y2="161.32" gradientUnits="userSpaceOnUse">
<stop stop-color="#E200D9"/>
<stop offset="1" stop-color="#FFE455"/>
</linearGradient>
</defs>
</svg>
