<svg width="164" height="224" viewBox="0 0 164 224" fill="none" xmlns="http://www.w3.org/2000/svg">
<path fill-rule="evenodd" clip-rule="evenodd" d="M4.77686 40.1728L23.1236 4.78984C78.9605 -6.10622 163.801 -4.10752 163.801 73.0321C163.801 158.782 58.965 208.528 5.66936 222.977C5.2068 223.103 4.77686 222.747 4.77686 222.268L4.77686 40.1728Z" fill="url(#paint0_linear)" fill-opacity="0.1"/>
<path fill-rule="evenodd" clip-rule="evenodd" d="M2.9404 221.979L4.888 223.092C4.98526 223.148 5.10628 223.078 5.10628 222.966V42.3878C5.79371 40.432 7.49735 38.9308 9.63907 38.5683L24.6309 36.031C27.9057 35.4767 30.0583 32.3048 29.3638 29.0568L24.0866 4.37671L24.0558 4.40749L24.0724 4.37671L21.6413 5.41861C19.9046 6.16291 18.4554 7.44918 17.5101 9.08522L1.76125 36.3429C1.6068 36.6102 1.46215 36.8823 1.32743 37.1587L1.22957 37.3233C0.424778 38.6768 0 40.2223 0 41.797V42.9117V54.71V216.913C0 219.007 1.12213 220.94 2.9404 221.979ZM112.738 54.012L48.5449 71.3385V79.2258L112.738 61.8993V54.012ZM112.738 71.4353L48.5449 88.7617V96.649L112.738 79.3226V71.4353ZM112.738 88.8586L48.5449 106.185V114.072L112.738 96.746V88.8586ZM112.738 106.282L48.5449 123.608V131.496L112.738 114.169V106.282ZM98.982 126.586V134.501L48.5449 148.918V141.003L98.982 126.586Z" fill="url(#paint1_linear)"/>
<defs>
<linearGradient id="paint0_linear" x1="163.401" y1="153.918" x2="10.2123" y2="17.5072" gradientUnits="userSpaceOnUse">
<stop/>
<stop offset="1" stop-opacity="0"/>
</linearGradient>
<linearGradient id="paint1_linear" x1="4.37678" y1="-9.61595e-05" x2="129.846" y2="210.086" gradientUnits="userSpaceOnUse">
<stop stop-color="#E200D9"/>
<stop offset="1" stop-color="#FFE455"/>
</linearGradient>
</defs>
</svg>
